<svg xmlns="http://www.w3.org/2000/svg" viewBox="0 0 32 32" width="32" height="32">
  <defs>
    <linearGradient id="quoridor-gradient" x1="0%" y1="0%" x2="100%" y2="100%">
      <stop offset="0%" style="stop-color:#059669;stop-opacity:1" />
      <stop offset="100%" style="stop-color:#047857;stop-opacity:1" />
    </linearGradient>
  </defs>
  <rect width="32" height="32" rx="6" fill="url(#quoridor-gradient)"/>
  <g fill="white">
    <!-- Game board grid -->
    <rect x="4" y="4" width="2" height="2" fill="white"/>
    <rect x="8" y="4" width="2" height="2" fill="white"/>
    <rect x="12" y="4" width="2" height="2" fill="white"/>
    <rect x="16" y="4" width="2" height="2" fill="white"/>
    <rect x="20" y="4" width="2" height="2" fill="white"/>
    <rect x="24" y="4" width="2" height="2" fill="white"/>
    
    <rect x="4" y="8" width="2" height="2" fill="white"/>
    <rect x="8" y="8" width="2" height="2" fill="white"/>
    <rect x="12" y="8" width="2" height="2" fill="white"/>
    <rect x="16" y="8" width="2" height="2" fill="white"/>
    <rect x="20" y="8" width="2" height="2" fill="white"/>
    <rect x="24" y="8" width="2" height="2" fill="white"/>
    
    <rect x="4" y="12" width="2" height="2" fill="white"/>
    <rect x="8" y="12" width="2" height="2" fill="white"/>
    <rect x="12" y="12" width="2" height="2" fill="white"/>
    <rect x="16" y="12" width="2" height="2" fill="white"/>
    <rect x="20" y="12" width="2" height="2" fill="white"/>
    <rect x="24" y="12" width="2" height="2" fill="white"/>
    
    <rect x="4" y="16" width="2" height="2" fill="white"/>
    <rect x="8" y="16" width="2" height="2" fill="white"/>
    <rect x="12" y="16" width="2" height="2" fill="white"/>
    <rect x="16" y="16" width="2" height="2" fill="white"/>
    <rect x="20" y="16" width="2" height="2" fill="white"/>
    <rect x="24" y="16" width="2" height="2" fill="white"/>
    
    <rect x="4" y="20" width="2" height="2" fill="white"/>
    <rect x="8" y="20" width="2" height="2" fill="white"/>
    <rect x="12" y="20" width="2" height="2" fill="white"/>
    <rect x="16" y="20" width="2" height="2" fill="white"/>
    <rect x="20" y="20" width="2" height="2" fill="white"/>
    <rect x="24" y="20" width="2" height="2" fill="white"/>
    
    <rect x="4" y="24" width="2" height="2" fill="white"/>
    <rect x="8" y="24" width="2" height="2" fill="white"/>
    <rect x="12" y="24" width="2" height="2" fill="white"/>
    <rect x="16" y="24" width="2" height="2" fill="white"/>
    <rect x="20" y="24" width="2" height="2" fill="white"/>
    <rect x="24" y="24" width="2" height="2" fill="white"/>
    
    <!-- Player pieces -->
    <circle cx="8" cy="28" r="2" fill="#FCD34D"/>
    <circle cx="24" cy="4" r="2" fill="#EF4444"/>
    
    <!-- Wall -->
    <rect x="14" y="10" width="4" height="1" fill="#6B7280"/>
  </g>
</svg>
